<svg xmlns="http://www.w3.org/2000/svg" viewBox="0 -120 376 376" width="376" height="376">
  <path d="M 203.50 0.25 L 202.00 0.75 L 197.75 0.75 L 196.50 1.00 L 196.00 1.50 L 195.00 1.75 L 193.50 1.75 L 192.25 2.50 L 191.50 2.75 L 190.50 2.75 L 188.75 3.75 L 187.75 3.75 L 187.25 4.00 L 186.75 4.50 L 186.25 4.75 L 185.75 4.75 L 185.25 5.00 L 184.75 5.50 L 184.25 5.75 L 183.75 5.75 L 183.25 6.00 L 182.75 6.50 L 182.00 6.75 L 181.00 7.75 L 180.50 7.75 L 180.00 8.00 L 179.50 8.50 L 179.00 8.75 L 178.25 9.50 L 177.50 9.75 L 176.25 10.75 L 175.25 11.75 L 174.25 12.50 L 172.75 13.75 L 169.75 16.75 L 168.75 18.25 L 166.75 20.25 L 165.75 21.50 L 165.00 22.50 L 164.75 23.25 L 163.75 24.25 L 163.50 25.00 L 162.75 25.75 L 162.75 26.25 L 162.25 26.75 L 161.75 27.50 L 161.50 28.25 L 161.00 28.75 L 160.50 30.00 L 160.00 30.50 L 159.75 31.00 L 159.75 31.50 L 159.50 32.00 L 159.00 32.50 L 158.75 33.00 L 158.75 33.50 L 158.50 34.00 L 158.00 34.50 L 157.75 35.00 L 157.75 35.75 L 156.75 37.50 L 156.75 38.25 L 156.50 39.00 L 156.00 39.50 L 155.75 40.00 L 155.75 41.00 L 155.50 41.50 L 155.00 42.00 L 154.75 42.50 L 154.75 44.25 L 154.50 45.00 L 154.00 45.50 L 153.75 46.00 L 153.75 47.75 L 153.25 48.50 L 153.00 49.50 L 152.75 50.25 L 152.75 52.50 L 152.50 53.25 L 152.00 54.25 L 151.75 55.75 L 151.75 59.50 L 151.25 62.75 L 151.00 65.75 L 151.00 69.75 L 151.25 73.00 L 151.75 75.75 L 151.75 79.25 L 152.00 80.50 L 152.50 81.75 L 152.75 82.75 L 152.75 85.00 L 153.00 85.75 L 153.50 86.50 L 153.75 87.25 L 153.75 88.75 L 154.00 89.50 L 154.25 90.25 L 154.75 91.00 L 154.75 92.25 L 155.75 94.00 L 155.75 95.25 L 156.75 97.00 L 156.75 97.50 L 157.00 98.25 L 157.50 98.75 L 157.50 99.25 L 157.75 100.00 L 158.00 100.50 L 158.50 101.00 L 158.75 101.50 L 158.75 102.00 L 159.00 102.50 L 159.50 103.00 L 159.75 103.50 L 159.75 104.00 L 160.00 104.50 L 160.50 105.00 L 160.75 105.50 L 160.75 106.00 L 161.50 106.75 L 162.00 108.00 L 162.75 108.75 L 162.75 109.25 L 163.50 110.00 L 163.75 110.75 L 164.75 111.75 L 164.75 112.25 L 165.75 113.50 L 166.75 114.50 L 167.50 115.25 L 167.75 116.00 L 168.75 117.25 L 169.50 118.00 L 170.50 119.00 L 171.50 119.75 L 172.00 120.25 L 172.50 120.75 L 173.00 121.25 L 173.50 121.75 L 175.25 123.25 L 176.25 124.00 L 177.25 125.00 L 178.50 126.00 L 179.50 126.75 L 180.25 127.00 L 181.00 127.75 L 181.50 128.00 L 182.25 128.00 L 183.25 129.00 L 183.75 129.00 L 184.50 129.75 L 185.00 130.00 L 185.75 130.00 L 186.25 130.25 L 186.75 130.75 L 187.25 131.00 L 188.25 131.00 L 189.00 131.75 L 189.50 132.00 L 190.75 132.00 L 192.50 133.00 L 193.75 133.00 L 194.75 133.25 L 195.50 133.75 L 196.50 134.00 L 198.75 134.00 L 200.50 134.25 L 201.75 134.75 L 209.00 134.75 L 210.25 134.25 L 211.75 134.00 L 214.00 134.00 L 215.25 133.75 L 215.75 133.25 L 216.75 133.00 L 218.25 133.00 L 220.00 132.00 L 221.00 132.00 L 221.50 131.75 L 222.00 131.25 L 222.50 131.00 L 223.50 131.00 L 224.00 130.75 L 224.50 130.25 L 225.00 130.00 L 225.50 130.00 L 226.00 129.75 L 226.50 129.25 L 227.00 129.00 L 227.50 129.00 L 228.50 128.00 L 229.00 128.00 L 229.50 127.75 L 230.00 127.25 L 230.75 127.00 L 231.75 126.00 L 232.25 126.00 L 233.50 124.75 L 234.50 124.00 L 235.25 123.25 L 236.00 123.00 L 237.25 122.00 L 238.00 121.25 L 238.75 120.25 L 239.25 120.00 L 240.25 119.00 L 241.00 118.25 L 242.25 116.75 L 243.00 115.50 L 244.00 114.75 L 244.50 114.00 L 245.25 113.00 L 245.75 112.50 L 246.00 112.00 L 246.00 111.50 L 247.00 110.50 L 247.25 110.00 L 247.75 109.50 L 248.00 109.00 L 248.00 108.50 L 248.75 107.75 L 249.00 107.00 L 249.75 106.25 L 250.00 105.75 L 250.00 105.25 L 250.25 104.75 L 250.75 104.25 L 251.00 103.75 L 251.00 103.25 L 251.25 102.75 L 251.75 102.25 L 252.00 101.75 L 252.00 101.25 L 252.25 100.75 L 252.75 100.25 L 253.00 99.75 L 253.00 99.00 L 253.25 98.50 L 253.75 98.00 L 254.00 97.50 L 254.00 96.50 L 254.25 95.75 L 254.75 95.25 L 255.00 94.75 L 255.00 93.75 L 255.25 93.25 L 255.75 92.75 L 256.00 92.25 L 256.00 90.50 L 256.25 89.75 L 256.75 89.25 L 257.00 88.50 L 257.00 86.75 L 257.50 86.00 L 257.75 85.25 L 258.00 84.50 L 258.00 82.00 L 258.25 80.75 L 258.75 79.75 L 259.00 78.75 L 259.00 74.00 L 259.50 70.00 L 259.50 64.75 L 259.00 60.75 L 259.00 56.50 L 258.75 55.25 L 258.25 54.00 L 258.00 53.00 L 258.00 50.75 L 257.75 49.50 L 257.25 49.00 L 257.00 48.00 L 257.00 46.75 L 256.75 45.50 L 256.25 45.00 L 256.00 44.25 L 256.00 43.00 L 255.75 42.50 L 255.25 42.00 L 255.00 41.25 L 255.00 40.00 L 254.75 39.50 L 254.25 39.00 L 254.00 38.25 L 254.00 37.50 L 253.00 35.75 L 253.00 35.25 L 252.75 34.75 L 252.25 34.25 L 252.00 33.75 L 252.00 33.25 L 251.75 32.75 L 251.25 32.25 L 251.00 31.75 L 251.00 31.25 L 250.75 30.75 L 250.25 30.25 L 250.00 29.75 L 250.00 29.25 L 249.25 28.50 L 249.00 28.00 L 249.00 27.50 L 248.25 26.75 L 248.00 26.00 L 247.25 25.25 L 247.00 24.50 L 246.25 23.75 L 245.75 23.00 L 245.00 22.00 L 245.00 21.50 L 244.25 21.00 L 243.25 19.75 L 242.00 18.25 L 241.25 17.25 L 237.75 13.75 L 235.25 11.50 L 233.75 10.50 L 233.25 9.75 L 232.75 9.75 L 231.75 8.75 L 231.00 8.25 L 230.25 7.75 L 229.75 7.75 L 229.25 7.50 L 229.00 7.00 L 228.00 6.50 L 227.25 6.00 L 226.00 5.50 L 225.50 5.00 L 225.00 4.75 L 224.25 4.75 L 223.75 4.50 L 223.25 4.00 L 222.75 3.75 L 222.00 3.75 L 220.25 2.75 L 219.00 2.75 L 217.25 1.75 L 215.75 1.75 L 214.75 1.50 L 213.75 1.00 L 212.75 0.75 L 208.75 0.75 L 207.25 0.25 Z M 202.75 41.25 L 207.75 41.25 L 208.50 41.50 L 209.50 42.00 L 210.50 42.00 L 211.25 42.25 L 212.50 43.00 L 213.00 43.00 L 213.50 43.25 L 214.00 43.75 L 215.25 44.25 L 216.50 45.25 L 219.50 48.25 L 220.50 49.50 L 220.75 50.25 L 221.50 51.00 L 221.75 51.75 L 222.50 52.50 L 222.75 53.00 L 222.75 53.75 L 223.25 54.25 L 223.75 55.25 L 223.75 56.00 L 224.25 56.50 L 224.50 57.00 L 224.75 58.25 L 224.75 59.25 L 225.50 60.50 L 225.75 61.75 L 226.00 66.50 L 226.00 68.25 L 225.75 73.00 L 225.50 74.50 L 224.75 75.75 L 224.75 77.25 L 224.50 78.00 L 224.00 78.50 L 223.75 79.00 L 223.75 79.50 L 223.50 80.25 L 223.25 80.75 L 222.75 81.25 L 222.75 81.75 L 222.25 82.75 L 221.75 83.25 L 221.75 83.75 L 221.50 84.25 L 220.75 85.25 L 219.50 86.75 L 216.75 89.50 L 215.50 90.50 L 214.75 90.75 L 214.00 91.50 L 213.50 91.50 L 212.50 92.00 L 212.00 92.50 L 211.25 92.75 L 210.50 92.75 L 209.25 93.50 L 207.75 93.75 L 202.75 93.75 L 201.75 93.50 L 201.00 93.25 L 200.25 93.00 L 199.25 92.75 L 198.50 92.50 L 198.00 92.00 L 197.50 91.75 L 197.00 91.75 L 196.50 91.50 L 195.75 90.75 L 195.00 90.50 L 190.25 85.75 L 190.00 85.00 L 189.25 84.25 L 188.75 83.00 L 188.25 82.50 L 188.00 82.00 L 188.00 81.50 L 187.25 80.75 L 187.00 80.00 L 187.00 79.25 L 186.50 78.75 L 186.25 78.25 L 186.00 77.50 L 186.00 76.25 L 185.75 75.50 L 185.25 74.75 L 185.00 73.25 L 184.75 70.25 L 184.75 65.00 L 185.00 61.50 L 185.25 60.00 L 185.50 59.50 L 186.00 59.00 L 186.00 57.50 L 186.25 56.75 L 186.75 56.25 L 187.00 55.75 L 187.00 55.25 L 187.25 54.50 L 187.50 54.00 L 188.00 53.50 L 188.00 53.00 L 188.25 52.50 L 188.75 52.00 L 189.25 50.75 L 190.00 49.75 L 190.75 48.75 L 191.25 48.00 L 193.00 46.25 L 194.50 45.00 L 195.50 44.25 L 196.75 43.75 L 197.25 43.25 L 197.75 43.00 L 198.50 43.00 L 199.25 42.25 L 200.00 42.00 L 201.25 42.00 L 202.00 41.50 Z" fill="#113a62" fill-rule="evenodd"/>
  <path d="M 360.75 0.00 L 360.00 0.75 L 359.25 0.75 L 358.25 1.75 L 357.75 1.75 L 357.00 2.50 L 356.50 2.75 L 355.75 3.50 L 355.00 4.50 L 354.75 5.25 L 354.00 6.00 L 353.75 6.50 L 353.75 7.50 L 353.50 8.25 L 353.00 9.00 L 352.75 10.25 L 352.75 11.75 L 353.00 13.25 L 353.50 13.75 L 353.75 14.50 L 353.75 15.50 L 354.75 16.50 L 354.75 17.00 L 355.50 18.00 L 357.00 19.25 L 357.50 20.00 L 358.50 20.75 L 359.00 21.00 L 359.75 21.00 L 360.25 21.25 L 360.75 21.75 L 361.50 22.00 L 363.75 22.25 L 366.00 22.25 L 368.25 22.00 L 370.00 21.00 L 370.50 21.00 L 371.00 20.75 L 371.75 20.00 L 372.50 19.75 L 373.25 18.75 L 373.75 18.25 L 374.25 17.75 L 375.00 17.00 L 375.00 16.50 L 375.75 15.75 L 376.00 15.25 L 376.00 14.00 L 376.50 13.25 L 376.75 12.50 L 376.75 9.75 L 376.50 9.00 L 376.25 8.00 L 376.00 6.75 L 375.75 6.25 L 375.25 5.75 L 375.00 5.00 L 374.00 3.75 L 372.75 2.50 L 371.75 1.75 L 371.00 1.25 L 370.25 0.75 L 369.50 0.75 L 368.75 0.00 Z" fill="#071426"/>
  <path d="M 284.25 0.00 L 284.00 0.50 L 283.25 0.75 L 281.75 0.75 L 281.25 1.00 L 280.75 1.50 L 280.25 1.75 L 279.50 1.75 L 278.50 2.50 L 276.25 4.75 L 275.75 5.25 L 275.25 5.75 L 274.75 6.50 L 274.75 7.00 L 274.50 7.50 L 273.75 8.25 L 273.75 9.25 L 273.50 10.00 L 273.00 10.50 L 272.75 11.25 L 272.75 123.75 L 273.00 124.50 L 273.25 125.25 L 273.75 126.00 L 273.75 126.50 L 274.00 127.25 L 274.50 127.75 L 274.75 128.50 L 275.50 129.25 L 275.75 130.00 L 277.75 132.00 L 278.25 132.00 L 279.25 133.00 L 280.00 133.25 L 280.50 133.75 L 281.00 134.00 L 282.00 134.00 L 282.75 134.50 L 283.50 134.75 L 284.25 135.00 L 293.50 135.00 L 294.75 134.75 L 295.50 134.25 L 296.00 134.25 L 297.00 134.00 L 297.50 133.75 L 298.00 133.25 L 298.50 133.00 L 299.00 133.00 L 300.00 132.25 L 301.25 130.75 L 301.75 130.25 L 302.75 129.50 L 303.00 129.00 L 303.00 128.50 L 303.50 128.00 L 304.00 127.25 L 304.00 126.50 L 305.00 124.75 L 305.25 122.50 L 305.00 76.50 L 305.00 75.75 L 305.50 75.25 L 305.75 75.75 L 306.00 76.25 L 306.50 76.75 L 307.00 78.00 L 307.50 78.50 L 308.00 79.75 L 308.50 80.25 L 309.00 81.50 L 309.75 82.25 L 309.75 82.75 L 310.00 83.25 L 310.50 83.75 L 311.00 85.00 L 311.75 85.75 L 311.75 86.25 L 312.00 86.75 L 312.75 87.50 L 312.75 88.00 L 313.50 88.75 L 314.00 90.00 L 314.50 90.50 L 315.00 91.75 L 315.50 92.25 L 316.00 93.50 L 316.75 94.25 L 316.75 94.75 L 317.00 95.25 L 317.75 96.00 L 318.25 97.25 L 318.75 97.75 L 318.75 98.25 L 319.00 98.75 L 319.75 99.50 L 319.75 100.00 L 320.50 100.75 L 321.00 102.00 L 321.50 102.50 L 322.00 103.75 L 322.75 104.50 L 322.75 105.00 L 323.00 105.50 L 323.75 106.25 L 323.75 106.75 L 324.00 107.25 L 324.75 108.00 L 325.75 109.25 L 325.75 109.75 L 325.75 110.25 L 326.25 111.00 L 326.75 111.50 L 326.75 112.00 L 327.50 112.75 L 328.00 114.00 L 328.75 114.75 L 328.75 115.25 L 329.00 115.75 L 329.75 116.50 L 329.75 117.00 L 330.00 117.50 L 330.75 118.25 L 330.75 118.75 L 331.00 119.25 L 331.75 120.00 L 332.00 120.75 L 332.50 121.25 L 332.75 121.75 L 332.75 122.25 L 333.25 123.00 L 333.75 123.50 L 333.75 124.00 L 334.50 124.75 L 335.00 126.00 L 335.75 126.75 L 336.00 127.50 L 337.50 129.00 L 338.75 130.00 L 339.25 130.00 L 340.00 130.75 L 340.50 131.00 L 341.00 131.00 L 341.50 131.25 L 342.00 131.75 L 342.75 132.00 L 345.00 132.25 L 349.25 132.25 L 351.50 132.00 L 352.25 131.75 L 353.50 131.00 L 354.25 131.00 L 355.25 130.50 L 355.75 130.00 L 356.25 130.00 L 356.75 129.75 L 357.50 129.00 L 358.25 128.75 L 362.00 125.00 L 362.00 124.50 L 363.00 123.50 L 363.00 123.00 L 363.25 122.50 L 363.75 122.00 L 364.00 121.50 L 364.00 120.75 L 364.75 119.50 L 365.00 118.50 L 365.00 113.75 L 364.75 112.75 L 364.00 111.50 L 364.00 110.75 L 363.25 110.00 L 362.75 108.75 L 362.00 108.00 L 362.00 107.50 L 361.75 107.00 L 361.25 106.50 L 360.75 105.25 L 360.00 104.50 L 360.00 104.00 L 359.75 103.50 L 359.00 102.75 L 358.50 101.50 L 358.00 101.00 L 358.00 100.50 L 357.75 100.00 L 357.00 99.25 L 357.00 98.75 L 356.25 98.00 L 355.75 96.75 L 355.00 96.00 L 355.00 95.50 L 354.75 95.00 L 354.00 94.25 L 354.00 93.75 L 353.75 93.25 L 353.00 92.50 L 353.00 92.00 L 352.75 91.50 L 352.00 90.75 L 351.50 89.50 L 351.00 89.00 L 351.00 88.50 L 350.50 87.75 L 350.00 87.25 L 350.00 86.75 L 349.25 86.00 L 348.75 84.75 L 348.00 84.00 L 348.00 83.50 L 347.75 83.00 L 347.00 82.25 L 347.00 81.75 L 346.75 81.25 L 346.00 80.50 L 346.00 80.00 L 345.75 79.50 L 345.00 78.75 L 344.75 78.00 L 344.25 77.50 L 344.00 77.00 L 344.00 76.50 L 343.25 75.75 L 343.00 75.25 L 343.00 74.75 L 342.25 74.00 L 341.75 72.75 L 341.00 72.00 L 341.00 71.50 L 340.75 71.00 L 340.00 70.25 L 340.00 69.75 L 339.75 69.25 L 339.00 68.50 L 339.00 68.00 L 338.75 67.50 L 338.00 66.75 L 337.75 66.00 L 337.25 65.50 L 337.00 65.00 L 337.00 64.50 L 336.00 63.50 L 336.00 63.00 L 335.75 62.50 L 335.25 62.00 L 334.75 60.75 L 334.00 60.00 L 334.00 59.50 L 333.75 59.00 L 333.00 58.25 L 333.00 57.75 L 332.25 57.00 L 332.00 56.50 L 332.00 56.00 L 331.75 55.50 L 331.00 54.75 L 330.75 54.25 L 330.25 53.50 L 330.00 53.00 L 330.00 52.50 L 329.00 51.50 L 329.00 51.00 L 328.75 50.50 L 328.25 50.00 L 327.75 48.75 L 327.00 48.00 L 327.00 47.50 L 326.75 47.00 L 326.00 46.25 L 326.00 45.75 L 325.25 45.00 L 325.00 44.50 L 325.00 44.00 L 324.75 43.50 L 324.00 42.75 L 323.75 42.00 L 323.25 41.50 L 322.75 40.25 L 322.00 39.50 L 322.00 39.00 L 321.75 38.50 L 321.25 37.75 L 321.00 37.25 L 320.75 36.75 L 320.00 36.00 L 320.00 35.50 L 319.75 35.00 L 319.00 34.25 L 319.00 33.75 L 318.25 33.00 L 318.00 32.50 L 318.00 32.00 L 317.75 31.50 L 317.00 30.75 L 316.75 30.00 L 316.25 29.50 L 315.75 28.25 L 315.00 27.50 L 315.00 27.00 L 314.75 26.50 L 314.00 25.75 L 314.00 25.25 L 313.75 24.75 L 313.00 24.00 L 313.00 23.50 L 312.75 23.00 L 312.00 22.25 L 312.00 21.75 L 311.25 21.00 L 310.75 19.75 L 310.00 19.00 L 310.00 18.50 L 309.75 18.00 L 309.25 17.50 L 308.75 16.25 L 308.00 15.50 L 308.00 15.00 L 307.75 14.50 L 307.00 13.75 L 306.50 12.50 L 306.00 12.00 L 306.00 11.50 L 305.75 11.00 L 305.00 10.25 L 305.00 9.75 L 304.75 9.25 L 304.25 8.75 L 304.00 8.25 L 304.00 7.75 L 303.75 7.25 L 303.25 6.75 L 302.75 5.75 L 302.00 4.75 L 300.00 2.75 L 299.25 2.50 L 298.50 1.75 L 298.00 1.75 L 297.25 1.00 L 296.75 0.75 L 295.75 0.75 L 295.00 0.00 Z" fill="#0c2a49" />
  <path d="M 118.25 0.00 L 117.50 0.75 L 116.00 0.75 L 115.50 1.00 L 115.00 1.50 L 114.50 1.50 L 113.50 2.00 L 112.50 2.75 L 109.75 5.50 L 109.00 6.50 L 108.75 7.00 L 108.75 7.50 L 108.50 8.00 L 108.00 8.50 L 107.75 9.25 L 107.50 10.25 L 107.25 11.25 L 107.00 12.00 L 106.75 14.25 L 106.75 121.50 L 107.00 123.25 L 107.50 124.00 L 107.75 124.75 L 107.75 126.00 L 108.00 126.50 L 108.50 127.00 L 108.75 127.50 L 108.75 128.00 L 109.00 128.50 L 109.50 129.00 L 109.75 129.50 L 111.75 131.50 L 112.25 132.00 L 112.75 132.50 L 113.50 133.00 L 114.25 133.25 L 114.75 133.75 L 115.25 134.00 L 116.25 134.00 L 117.00 134.25 L 117.50 134.75 L 119.00 135.00 L 127.75 135.00 L 129.25 134.75 L 129.75 134.25 L 130.50 134.00 L 131.50 134.00 L 132.00 133.75 L 132.75 133.00 L 133.25 133.00 L 134.25 132.25 L 136.00 130.75 L 137.00 129.50 L 137.25 128.75 L 138.00 128.00 L 138.25 127.25 L 138.25 126.75 L 138.75 126.25 L 139.00 125.75 L 139.25 124.50 L 139.50 123.50 L 139.75 122.50 L 139.75 12.75 L 139.50 11.50 L 139.00 10.50 L 139.00 9.25 L 138.75 8.75 L 138.25 8.25 L 138.00 7.75 L 138.00 7.25 L 137.75 6.75 L 137.00 6.00 L 137.00 5.50 L 136.25 5.00 L 134.75 3.50 L 134.25 2.75 L 133.25 2.00 L 132.75 1.75 L 132.25 1.75 L 131.75 1.50 L 131.25 1.00 L 130.50 0.75 L 129.25 0.75 L 128.50 0.50 L 128.25 0.00 Z" fill="#071426" />
  <path d="M 72.00 0.00 L 71.25 0.75 L 70.50 0.75 L 70.00 1.00 L 69.25 1.75 L 68.75 1.75 L 67.50 2.75 L 66.75 3.50 L 65.75 4.75 L 65.75 5.25 L 64.75 6.25 L 64.50 7.00 L 64.00 7.50 L 63.75 8.25 L 63.25 9.00 L 62.75 9.50 L 62.00 10.50 L 61.75 11.25 L 61.50 11.75 L 61.00 12.25 L 60.75 12.75 L 60.75 13.25 L 59.75 14.25 L 59.50 15.00 L 59.00 15.50 L 58.75 16.25 L 58.25 16.75 L 57.75 17.50 L 57.75 18.00 L 57.00 18.75 L 56.75 19.50 L 56.00 20.25 L 55.75 20.75 L 55.75 21.25 L 54.75 22.25 L 54.75 22.75 L 54.00 23.50 L 53.75 24.00 L 53.25 24.75 L 52.75 25.50 L 52.75 26.00 L 52.50 26.50 L 52.00 26.75 L 51.00 28.25 L 50.75 28.75 L 50.75 29.25 L 50.25 30.00 L 49.75 30.75 L 49.00 31.50 L 48.75 32.25 L 48.00 33.00 L 47.75 33.50 L 47.75 34.25 L 46.75 35.25 L 46.50 35.75 L 46.00 36.25 L 45.75 36.75 L 45.75 37.25 L 45.25 38.00 L 44.75 38.75 L 44.00 39.50 L 43.50 40.75 L 42.75 41.50 L 42.75 42.25 L 41.75 43.25 L 41.50 44.00 L 40.75 44.75 L 40.75 45.25 L 40.25 46.00 L 39.75 46.50 L 39.00 47.50 L 38.50 48.75 L 38.00 49.25 L 37.75 49.75 L 37.75 50.25 L 36.75 51.25 L 36.50 52.00 L 36.00 52.50 L 35.75 53.25 L 35.25 54.00 L 34.75 54.50 L 34.00 55.50 L 33.75 56.25 L 33.50 56.75 L 33.00 57.25 L 32.75 57.75 L 32.75 58.25 L 31.75 59.25 L 31.50 60.00 L 31.00 60.50 L 30.75 61.25 L 30.25 61.75 L 29.75 62.50 L 29.50 63.25 L 29.00 63.75 L 28.75 64.50 L 28.00 65.25 L 27.75 65.75 L 27.75 66.25 L 26.75 67.25 L 26.75 67.75 L 26.00 68.50 L 25.75 69.00 L 25.25 69.75 L 24.75 70.50 L 24.75 71.00 L 24.50 71.50 L 24.00 71.75 L 23.00 73.25 L 22.75 73.75 L 22.75 74.25 L 22.25 75.00 L 21.75 75.75 L 21.00 76.50 L 20.75 77.25 L 20.00 78.00 L 19.75 78.50 L 19.75 79.25 L 18.75 80.25 L 18.50 80.75 L 18.00 81.25 L 17.75 81.75 L 17.75 82.25 L 17.25 83.00 L 16.75 83.75 L 15.75 84.75 L 15.75 85.25 L 15.50 85.75 L 14.75 86.50 L 14.75 87.25 L 13.75 88.25 L 13.50 89.00 L 12.75 89.75 L 12.75 90.25 L 12.25 91.00 L 11.75 91.50 L 11.00 92.50 L 10.50 93.75 L 10.00 94.25 L 9.75 94.75 L 9.75 95.25 L 8.75 96.25 L 8.50 97.00 L 7.75 97.75 L 7.75 98.25 L 7.25 99.00 L 6.75 99.50 L 6.00 100.50 L 5.75 101.25 L 5.50 101.75 L 5.00 102.25 L 4.75 102.75 L 4.75 103.25 L 3.75 104.25 L 3.50 105.00 L 3.00 105.50 L 2.75 106.25 L 2.25 106.75 L 1.75 107.50 L 1.50 108.25 L 0.75 109.00 L 0.75 109.75 L 0.00 110.50 L 0.00 118.50 L 0.75 119.25 L 0.75 120.00 L 1.00 120.50 L 1.50 121.00 L 1.75 121.75 L 2.50 122.50 L 3.50 124.00 L 5.00 125.25 L 5.50 126.00 L 6.50 126.75 L 7.25 127.00 L 8.00 127.75 L 8.50 128.00 L 9.25 128.00 L 10.00 128.75 L 10.50 129.00 L 11.75 129.00 L 13.00 129.75 L 13.75 130.00 L 21.00 130.00 L 21.75 129.75 L 22.50 129.25 L 23.00 129.25 L 24.00 129.00 L 24.50 128.75 L 25.00 128.25 L 25.50 128.00 L 26.00 128.00 L 27.00 127.25 L 29.25 125.00 L 29.75 124.50 L 30.00 124.00 L 30.00 123.50 L 31.00 122.50 L 31.25 121.75 L 32.00 121.00 L 32.00 120.50 L 32.50 119.75 L 33.00 119.25 L 33.75 118.25 L 34.00 117.50 L 34.25 117.00 L 34.75 116.50 L 35.00 116.00 L 35.00 115.50 L 36.00 114.50 L 36.25 113.75 L 36.75 113.25 L 37.00 112.50 L 37.50 112.00 L 38.00 111.25 L 38.25 110.50 L 38.75 110.00 L 39.00 109.25 L 39.75 108.50 L 40.00 108.00 L 40.00 107.50 L 41.00 106.50 L 41.25 106.00 L 41.75 105.25 L 42.00 104.75 L 42.50 104.00 L 43.00 103.25 L 43.00 102.75 L 43.25 102.25 L 43.75 102.00 L 44.75 100.50 L 45.00 100.00 L 45.00 99.50 L 45.50 98.75 L 46.00 98.00 L 46.75 97.25 L 47.00 96.50 L 47.50 96.00 L 48.00 95.25 L 48.00 94.50 L 49.00 93.50 L 49.25 93.00 L 49.75 92.50 L 50.00 92.00 L 50.00 91.50 L 50.50 90.75 L 51.00 90.00 L 52.00 89.00 L 52.00 88.50 L 52.25 88.00 L 53.00 87.25 L 53.00 86.50 L 54.00 85.50 L 54.25 84.75 L 55.00 84.00 L 55.00 83.50 L 55.50 82.75 L 56.00 82.25 L 56.75 81.25 L 57.25 80.00 L 57.75 79.50 L 58.00 79.00 L 58.00 78.50 L 59.00 77.50 L 59.25 76.75 L 59.75 76.25 L 60.00 75.50 L 60.50 75.00 L 61.00 74.25 L 61.50 73.50 L 61.75 73.00 L 61.75 72.50 L 62.00 72.00 L 62.50 71.75 L 63.00 72.25 L 63.00 73.00 L 62.75 121.25 L 63.00 123.25 L 63.50 123.75 L 63.75 124.50 L 63.75 125.50 L 64.00 126.25 L 64.50 126.75 L 65.00 128.00 L 65.75 129.00 L 66.75 130.25 L 67.50 131.00 L 68.75 132.00 L 69.25 132.00 L 69.75 132.50 L 70.50 133.00 L 71.25 133.00 L 71.75 133.50 L 72.75 134.00 L 76.25 134.25 L 82.50 134.25 L 85.50 134.00 L 86.25 133.75 L 87.50 133.00 L 88.00 133.00 L 88.50 132.75 L 89.00 132.25 L 90.00 131.75 L 92.00 129.75 L 93.25 128.25 L 93.75 127.50 L 94.00 127.00 L 94.25 126.25 L 94.25 125.75 L 94.75 125.25 L 95.00 124.75 L 95.00 123.25 L 95.50 122.00 L 95.50 12.00 L 95.00 10.50 L 95.00 9.00 L 94.75 8.25 L 94.25 7.75 L 94.00 7.25 L 94.00 6.75 L 93.75 6.25 L 93.25 5.50 L 92.00 4.00 L 91.50 3.50 L 91.00 3.00 L 89.50 1.75 L 88.50 1.00 L 88.00 0.75 L 87.25 0.75 L 86.50 0.00 Z" fill="#0b233d" />
</svg>
